/* XPM */
static char *_bd50d5c066d4e45a569d525d0c82c0b[] = {
/* columns rows colors chars-per-pixel */
"64 64 243 2 ",
"   c #10100E",
".  c #121210",
"X  c #141411",
"o  c #141412",
"O  c #171716",
"+  c #181715",
"@  c #1A1914",
"#  c #1B1B1A",
"$  c #1C1B18",
"%  c #1E1C19",
"&  c #1D1D1A",
"*  c #211E1B",
"=  c #201F1C",
"-  c #26241B",
";  c #23201D",
":  c #24221F",
">  c #29271E",
",  c #2F2B1F",
"<  c #272320",
"1  c #282623",
"2  c #2B2723",
"3  c #282826",
"4  c #2F2A26",
"5  c gray17",
"6  c #2D2D2D",
"7  c #2F2F2F",
"8  c #312C28",
"9  c #302D2A",
"0  c #332E2A",
"q  c #312F2C",
"w  c #363326",
"e  c #393424",
"r  c #35302C",
"t  c #37322D",
"y  c #36322F",
"u  c #39342F",
"i  c #3B362E",
"p  c #333232",
"a  c #353230",
"s  c #353431",
"d  c #373430",
"f  c #363433",
"g  c #3A3531",
"h  c #383733",
"j  c #3C3732",
"k  c #3C3733",
"l  c #383635",
"z  c #3F3C31",
"x  c #3A3834",
"c  c #3B3834",
"v  c #393837",
"b  c #3A3836",
"n  c #3C3A38",
"m  c #3E3C39",
"M  c #423F2E",
"N  c #413B30",
"B  c #403B37",
"V  c #403D38",
"C  c #423D38",
"Z  c #403D3B",
"A  c #433F3B",
"S  c #443F3A",
"D  c #423F3C",
"F  c #433F3C",
"G  c #47412D",
"H  c #4D462F",
"J  c #464035",
"K  c #494237",
"L  c #424139",
"P  c #464338",
"I  c #46413C",
"U  c #44413E",
"Y  c #47433E",
"T  c #47433F",
"R  c #46453D",
"E  c #4F4A3C",
"W  c #4D4A3F",
"Q  c #524938",
"!  c #57513F",
"~  c #5A503C",
"^  c #60563B",
"/  c #62583B",
"(  c #444441",
")  c #494440",
"_  c #494541",
"`  c #4B4641",
"'  c #4B4642",
"]  c #484744",
"[  c #4D4840",
"{  c #4D4843",
"}  c #4D4844",
"|  c #4F4A45",
" . c #534E45",
".. c #554F47",
"X. c #5B5241",
"o. c #5B5442",
"O. c #585445",
"+. c #5F5843",
"@. c #5E5946",
"#. c #535249",
"$. c #5C5549",
"%. c #58544D",
"&. c #625840",
"*. c #685F46",
"=. c #605B49",
"-. c #625A4B",
";. c #625E4B",
":. c #625D56",
">. c #6D634B",
",. c #68604E",
"<. c #726648",
"1. c #70674A",
"2. c #70674E",
"3. c #746D4E",
"4. c #6E6550",
"5. c #6D6851",
"6. c #6A655B",
"7. c #6B675E",
"8. c #756A52",
"9. c #776C50",
"0. c #766F57",
"q. c #786F53",
"w. c #736D5E",
"e. c #787257",
"r. c #7F7354",
"t. c #6E6C61",
"y. c #727168",
"u. c #7B796D",
"i. c #80734B",
"p. c #80734E",
"a. c #817551",
"s. c #827553",
"d. c #817556",
"f. c #837855",
"g. c #8A7C51",
"h. c #897C55",
"j. c #877A58",
"k. c #837C5E",
"l. c #847F65",
"z. c #908157",
"x. c #938357",
"c. c #928359",
"v. c #94855C",
"b. c #9B8A5B",
"n. c #9A8A5C",
"m. c #9A8B5F",
"M. c #8F8561",
"N. c #8D8564",
"B. c #8B8268",
"V. c #998F68",
"C. c #988F6A",
"Z. c #8E8879",
"A. c #8A887C",
"S. c #93907E",
"D. c #A09061",
"F. c #A29260",
"G. c #A59462",
"H. c #A99761",
"J. c #AB9963",
"K. c #AD9B65",
"L. c #A39970",
"P. c #B3A067",
"I. c #B5A369",
"U. c #B6A46D",
"Y. c #B8A56C",
"T. c #BAA86E",
"R. c #AEA375",
"E. c #ADA376",
"W. c #AFA67D",
"Q. c #B0A272",
"!. c #B2A374",
"~. c #BCAB71",
"^. c #BFAD73",
"/. c #B9A874",
"(. c #BDAD76",
"). c #BFAF77",
"_. c #B9AC7B",
"`. c #BDAC7A",
"'. c #C1B076",
"]. c #C3B278",
"[. c #C6B57B",
"{. c #C3B37D",
"}. c #C0B47F",
"|. c #CABA7F",
" X c #918D80",
".X c #949184",
"XX c #A3A090",
"oX c #A4A090",
"OX c #ACA99A",
"+X c #B5AE95",
"@X c #B1AE9C",
"#X c #C0B180",
"$X c #C3B681",
"%X c #C3B682",
"&X c #C3B586",
"*X c #CBBC83",
"=X c #CCBD82",
"-X c #CBBE85",
";X c #C6B98D",
":X c #C5B98F",
">X c #C9BD93",
",X c #C0BCAA",
"<X c #CFC084",
"1X c #CDC088",
"2X c #CEC089",
"3X c #D1C287",
"4X c #D3C589",
"5X c #D6C78C",
"6X c #D7C98F",
"7X c #D8CA8E",
"8X c #CDC199",
"9X c #C9C19D",
"0X c #D2C694",
"qX c #D9CC92",
"wX c #DACD96",
"eX c #D0C59F",
"rX c #D1C69E",
"tX c #D6CB9E",
"yX c #DBCF99",
"uX c #DCD09D",
"iX c #C3C0AD",
"pX c #D3C9A6",
"aX c #D6CDAC",
"sX c #DCD2A1",
"dX c #DDD3A5",
"fX c #DFD6AD",
"gX c #CAC6B2",
"hX c #CCC7B1",
"jX c #CDCAB5",
"kX c #CFCBB7",
"lX c #D9D2B2",
"zX c #E1D9B4",
"xX c #E2DBB8",
"cX c #E0DABF",
"vX c #E3DCBC",
"bX c #DBD7C1",
"nX c #DDD9C3",
"mX c #E3DEC0",
"MX c #E4DFC3",
"NX c #E3DEC5",
"BX c #E5E1C7",
"VX c #E6E2CB",
"CX c None",
/* pixels */
"CXCXCXCXCXCXCX6 6 6 6 6 6 6 6 6 6 6 6 6 6 6 6 6 6 6 6 6 6 6 6 6 6 6 6 6 6 6 6 6 6 6 6 6 6 6 6 6 6 6 6 6 6 6 6 6 6 CXCXCXCXCXCXCX",
"CXCXCXCXCX6 6 6 6 6 6 6 6 6 6 6 6 6 6 6 6 6 6 6 6 6 6 6 6 6 6 6 6 6 6 6 6 6 6 6 6 6 6 6 6 6 6 6 6 6 6 6 6 6 6 6 6 6 6 CXCXCXCXCX",
"CXCXCXCX6 6 6 6 6 6 6 6 6 6 6 6 6 6 6 6 6 6 6 6 6 6 6 6 6 6 6 6 6 6 6 6 6 6 6 6 6 6 6 6 6 6 6 6 6 6 6 6 6 6 6 6 6 6 6 6 CXCXCXCX",
"CXCXCX6 6 6 6 6 6 6 6 6 6 6 6 6 6 6 6 6 6 6 6 6 6 6 6 6 6 6 6 6 6 6 6 6 6 6 6 6 6 6 6 6 6 6 6 6 6 6 6 6 6 6 6 6 6 6 6 6 6 CXCXCX",
"CXCX6 6 6 6 6 6 6 6 6 6 6 6 6 6 6 6 6 6 6 6 6 6 6 6 6 6 6 6 6 6 6 6 6 6 6 6 6 6 6 6 6 6 6 6 6 6 6 6 6 6 6 6 6 6 6 6 6 6 6 6 CXCX",
"CX6 6 6 6 6 6 6 6 6 6 6 6 6 6 6 6 6 6 6 6 6 6 6 6 6 6 6 6 6 6 6 6 6 6 6 6 6 6 6 6 6 6 6 6 6 6 6 6 6 6 6 6 6 6 6 6 6 6 6 6 6 6 CX",
"CX6 6 6 6 6 6 6 6 6 6 6 6 6 6 6 6 6 6 6 6 6 6 6 6 6 6 6 6 6 6 6 6 6 6 6 6 6 6 6 6 6 6 6 6 6 6 6 6 6 6 6 6 6 6 6 6 6 6 6 6 6 6 CX",
"6 6 6 6 6 6 6 6 6 6 6 6 6 6 6 6 6 6 6 6 6 6 6 6 6 6 6 6 6 6 6 6 6 6 6 6 6 6 6 6 6 6 6 6 6 6 6 6 6 6 6 6 6 6 6 6 6 6 6 6 6 6 6 6 ",
"6 6 6 6 6 6 6 6 6 6 6 6 6 6 6 6 6 6 6 6 6 6 6 6 6 6 6 6 6 6 6 6 6 6 6 6 6 6 6 6 6 6 6 6 6 6 6 6 6 6 6 6 6 6 6 6 6 6 6 6 6 6 6 6 ",
"6 6 6 6 6 6 6 6 6 6 6 6 6 6 6 6 6 6 6 6 6 6 6 6 6 6 6 6 6 6 6 6 6 6 6 6 6 6 6 6 6 6 6 6 6 6 6 6 6 6 6 6 6 6 6 6 6 6 6 6 6 6 6 6 ",
"6 6 6 6 6 6 6 6 6 6 6 6 6 6 6 6 6 6 6 6 6 6 6 6 6 6 6 6 6 6 6 6 6 6 6 6 6 6 6 6 6 6 6 6 6 6 6 6 6 6 6 6 6 6 6 6 6 6 6 6 6 6 6 6 ",
"6 6 6 6 6 6 6 6 6 6 6 6 6 6 6 6 6 6 6 6 6 6 6 6 6 6 h O.5.k.L.W.9XE.N.k.O.O.6 6 6 6 6 6 6 6 6 6 6 6 6 6 6 6 6 6 6 6 6 6 6 6 6 6 ",
"6 6 6 6 6 6 6 6 6 6 6 6 6 6 6 6 6 6 6 6 6 6 6 6 ;.E.7X7X7XqXfXVXVXMXsX7X7X7X$Xk.h 6 6 6 6 6 6 6 6 6 6 6 6 6 6 6 6 6 6 6 6 6 6 6 ",
"6 6 6 6 6 6 6 6 6 6 6 6 6 6 6 6 6 6 6 6 6 h e.$X7X7X7X7XdXMXVXVXVXVXVXvXuX7X7X7X1XV.L 6 6 6 6 6 6 6 6 6 6 6 6 6 6 6 6 6 6 6 6 6 ",
"6 6 6 6 6 6 6 6 6 6 6 6 6 6 6 6 6 6 6 L N.1X7X7X7X4X[.fXVXVXVXVXVXVXVXVXVXsX7X7X6X7X7XC.O.6 6 6 6 6 6 6 6 6 6 6 6 6 6 6 6 6 6 6 ",
"6 6 6 6 6 6 6 6 6 6 6 6 6 6 6 6 6 O.L.7X7X7X7X4X'.P.|.dXVXVXVXVXVXVXVXVXVXMX7X7X7X7X7X7X7XE.5.6 6 6 6 6 6 6 6 6 6 6 6 6 6 6 6 6 ",
"6 6 6 6 6 6 6 6 6 6 6 6 6 6 6 6 +.T.<X7X7X4X'.P.P.Y.7XyXVXVXVXVXVXVXVXVXVXVXdX7X7X7X7X7X7X7X7XE.6 6 6 6 6 6 6 6 6 6 6 6 6 6 6 6 ",
"6 6 6 6 6 6 6 6 6 6 6 6 6 6 6 6 F.P.P.^.].P.P.P.P.|.7X7XVXVXVXVXVXVXVXVXVXVXMXqX7X7X7X7X7X7X7X7XO.6 6 6 6 6 6 6 6 6 6 6 6 6 6 6 ",
"6 6 6 6 6 6 6 6 6 6 6 6 6 6 6 +.P.P.P.P.P.P.P.P.Y.7X7X7XvXVXVXVXVXVXVXVXVXVXVXfX7X7X7XdXdX7X7X7XC.6 6 6 6 6 6 6 6 6 6 6 6 6 6 6 ",
"6 6 6 6 6 6 6 6 6 6 6 6 6 6 6 c.P.P.P.P.P.P.P.P.[.7X7X7XfXVXVXVXVXVXVXVXVXVXVXMXyXdXMXVXVXyX7X7X7XL 6 6 6 6 6 6 6 6 6 6 6 6 6 6 ",
"6 6 6 6 6 6 6 6 6 6 6 6 6 6 E P.P.P.P.P.P.P.P.P.3X7X7X7XsXVXVXVXVXVXVXVXVXVXVXVXVXVXVXVXVXvX7X7X7XC.6 6 6 6 6 6 6 6 6 6 6 6 6 6 ",
"6 6 6 6 6 6 6 6 6 6 6 6 6 6 c.P.P.P.P.P.P.P.P.P.=X7X7X7XqXVXVXVXVXVXVXVXVXVXVXVXVXVXVXVXVXVXfX7X7X1Xh 6 6 6 6 6 6 6 6 6 6 6 6 6 ",
"6 6 6 6 6 6 6 6 6 6 6 6 6 E P.P.P.P.P.'.T.P.P.P.].7X7X7X7XMXVXVXVXVXVXVXVXVXVXVXVXVXVXVXVXVXVXuX7X7Xl.6 6 6 6 6 6 6 6 6 6 6 6 6 ",
"6 6 6 6 6 6 6 6 6 6 6 6 6 c.P.P.m.s.4X7X[.P.P.P.T.7X7X7X7XxXVXVXVXVXVXVXVXVXVXVXVXVXVXVXVXVXaXeX<X7X$X5 6 6 6 6 6 6 6 6 6 6 6 6 ",
"6 6 6 6 6 6 6 6 6 6 6 6 x 4.$.| | k _.7X=XP.P.P.P.5X7X7X7XtXVXVXVXMXdXMXVXVXVXVXVXVXVXVXVXVX}.P.P.P.P.P 6 6 6 6 6 6 6 6 6 6 6 6 ",
"6 6 6 6 6 6 6 6 6 6 6 6 6 | | | { 8 V.7X4XP.P.P.P.=X7X7X5XI.U.;XyX7X7XuXVXVXVXVXVXVXVXVXVXVXU.P.P.P.P.6 6 6 6 6 6 6 6 6 6 6 6 6 ",
"6 6 6 6 6 6 6 6 6 6 6 6 6 _ | | S 8 2.7X7XI.P.P.P.].7X7X].P.P.P.7X7X7X7XvXVXVXVXVXVXVXVXVXVXI.P.P.P.b.6 6 6 6 6 6 6 6 6 6 6 6 6 ",
"6 6 6 6 6 6 6 6 6 6 6 6 6 A | | u 8 J 7X7X~.P.P.P.~.7X4XP.P.P.P.7X7X7X7XyXVXVXVXVXVXVXVXVXlXP.P.P.P.c.6 6 6 6 6 6 6 6 6 6 6 6 6 ",
"6 6 6 6 6 6 6 6 6 6 6 6 6 n | ` 8 8 8 $X7X[.P.P.P.P.7X^.P.P.P.P.7X7X7X7X7XxXVXVXVXVXVXVXVXpXP.P.P.P.1.6 6 6 6 6 6 6 6 6 6 6 6 6 ",
"6 6 6 6 6 6 6 6 6 6 6 6 6 f { A 8 8 8 V.7X=XP.P.P.P.Q.P.P.P.P.P.7X7X7X7X7X-XVXVXVXVXVXVXVX8XP.P.P.P.+.6 6 6 6 6 6 6 6 6 6 6 6 6 ",
"6 6 6 6 6 6 6 6 6 6 6 6 6 6 | t 8 8 8 f.~.5X4X'.P.P.$.8.P.P.P.P.7X7X7X7X|.P.VXVXVXVXVXVXVX#XP.P.P.P.E 6 6 6 6 6 6 6 6 6 6 6 6 6 ",
"6 6 6 6 6 6 6 6 6 6 6 6 6 6 A 8 8 8 K P.=X7X7X7X4X(.| | -.K.P.P.7X7X7X[.P.K.jXVXVXVXVXVXvX(.P.P.P.P.6 6 6 6 6 6 6 6 6 6 6 6 6 6 ",
"6 6 6 6 6 6 6 6 6 6 6 6 6 6 f 8 9 t | &.3.3.M M M > % ` | -.D.P.7X7X'.P.P.~ .         * q.3XP.P.P.D.6 6 6 6 6 6 6 6 6 6 6 6 6 6 ",
"6 6 6 6 6 6 6 6 6 6 6 6 6 6 F 8 8 I I .               % Y |  .D.5X~.P.P.&.8       * 8 8 8 E.[.P.P.b.6 6 6 6 6 6 6 6 6 6 6 6 6 6 ",
"6 6 6 6 6 6 6 6 6 6 6 6 6 6 ) r g | :                   . S | -.:XP.P.&.8 2   + 2 8 8 8 8 i *XY.P.P.6 6 6 6 6 6 6 6 6 6 6 6 6 6 ",
"6 6 6 6 6 6 6 6 6 6 6 6 6 6 | B ` h                       o 9.P.aXvXl.g g 2 < 8 8 8 8 8 8 8 o.=XP.P.f 6 6 6 6 6 6 6 6 6 6 6 6 6 ",
"6 6 6 6 6 6 6 6 6 6 6 6 6 6 | } ` . + + + + + * * * f +   + d.P.>XVXgX| | } t 8 8 8 8 8 8 8 8 M.Y.P.Q 6 6 6 6 6 6 6 6 6 6 6 6 6 ",
"6 6 6 6 6 6 6 6 6 6 6 6 6 f | | | g 8 8 8 8 8 8 8 B | t   8 ,.I.!.VXVX:.| | ` t 8 8 8 8 8 8 k %X~.P.! 6 6 6 6 6 6 6 6 6 6 6 6 6 ",
"6 6 6 6 6 6 6 6 6 6 6 6 6 f | | | ) 8 8 8 8 8 8 k | | | + Y ,.H g.@XVX X| | | ` 0 8 8 8 8 8 M.7X~.P.1.6 6 6 6 6 6 6 6 6 6 6 6 6 ",
"6 6 6 6 6 6 6 6 6 6 6 6 6 m | | | | B 8 8 8 8 k | | | | S | >.  / Y VXgX| | | | Y 0 8 8 8 w.7X6X^.P.1.5 6 6 6 6 6 6 6 6 6 6 6 6 ",
"6 6 6 6 6 6 6 6 6 6 6 6 6 m | $.j.m.K.1.8 8 t | | | | ,.o. .M   e   @XVX,X%.| | | ) 8 8 6.VXVXmXeXP.c.6 6 6 6 6 6 6 6 6 6 6 6 6 ",
"6 6 6 6 6 6 6 6 6 6 6 6 6 U | | D.P.P.K.N t ` | | | d.b.8 p.    @   Y VXVXnX7.| | | I k nXVXVXNX/.P.h.6 6 6 6 6 6 6 6 6 6 6 6 6 ",
"6 6 6 6 6 6 6 6 6 6 6 6 6 7 ' | -.P.P.P.b.s.8.,.4.D.P.Q Q H           @XVXVXVXZ.,.8.d.+XVXVXVX:XP.J.P 6 6 6 6 6 6 6 6 6 6 6 6 6 ",
"6 6 6 6 6 6 6 6 6 6 6 6 6 6 p } | d.P.P.P.P.P.P.P.P.c.8 ^             #.VXVXVXpXP.P.P./.MXVXaXP.P.X.6 6 6 6 6 6 6 6 6 6 6 6 6 6 ",
"6 6 6 6 6 6 6 6 6 6 6 6 6 6 6 h | | D.I.P.P.P.P.P.P.Q % e             R VXMXVX}.P.P.P.P.>XMXU.P.*.6 6 6 6 6 6 6 6 6 6 6 6 6 6 6 ",
"6 6 6 6 6 6 6 6 6 6 6 6 6 6 6 6 n | -.>X>XaXlX-.K.P.Y * e             t.VX7XxXeX8X'.<X3X7X}.P.a.6 6 6 6 6 6 6 6 6 6 6 6 6 6 6 6 ",
"6 6 6 6 6 6 6 6 6 6 6 6 6 6 6 6 6 F } nXVXVXgX| -.I.| & e       +     u.xX7XfXNX`.'.7X7X7X~.b.6 6 6 6 6 6 6 6 6 6 6 6 6 6 6 6 6 ",
"6 6 6 6 6 6 6 6 6 6 6 6 6 6 6 6 6 6 ) ,XVXVXoX| | 8.-.1 M @   - c.    l.wX7XzX&XP.~.7X7X7XF.f 6 6 6 6 6 6 6 6 6 6 6 6 6 6 6 6 6 ",
"6 6 6 6 6 6 6 6 6 6 6 6 6 6 6 6 6 6 6 .XkXA.] } _ f _ { ;XXX  r.P., w 7XwX7X0X`.P.+.;.C.}.P 6 6 6 6 6 6 6 6 6 6 6 6 6 6 6 6 6 6 ",
"6 6 6 6 6 6 6 6 6 6 6 6 6 6 6 6 6 6 6 ( 6 6 6 3   = | 9.P.NX}.P.T.H.[.=XvX7XuXVXhX6 6 6 6 6 6 6 6 6 6 6 6 6 6 6 6 6 6 6 6 6 6 6 ",
"6 6 6 6 6 6 6 6 6 6 6 6 6 6 6 6 6 6 6 6 6 6 6 o   x | v.P.8X>XP.5XP.[.<XlXuXwXVXVXy.6 6 6 6 6 6 6 6 6 6 6 6 6 6 6 6 6 6 6 6 6 6 ",
"6 6 6 6 6 6 6 6 6 6 6 6 6 6 6 6 6 6 6 6 6 6 6 # + | ..P.P./.;XP.7XG.[.<X>XvX7XVXiXx 6 6 6 6 6 6 6 6 6 6 6 6 6 6 6 6 6 6 6 6 6 6 ",
"6 6 6 6 6 6 6 6 6 6 6 6 6 6 6 6 6 6 6 6 6 6 6 6 q A m s.1.b.! +.E 6 @.=.0.OXW. Xv 6 6 6 6 6 6 6 6 6 6 6 6 6 6 6 6 6 6 6 6 6 6 6 ",
"6 6 6 6 6 6 6 6 6 6 6 6 6 6 6 6 6 6 6 6 6 6 6 6 6 6 6 6 6 6 6 6 6 6 6 6 6 6 6 6 6 6 6 6 6 6 6 6 6 6 6 6 6 6 6 6 6 6 6 6 6 6 6 6 ",
"6 6 6 6 6 6 6 6 6 6 6 6 6 6 6 6 6 6 6 6 6 6 6 6 6 6 6 6 6 6 6 6 6 6 6 6 6 6 6 6 6 6 6 6 6 6 6 6 6 6 6 6 6 6 6 6 6 6 6 6 6 6 6 6 ",
"6 6 6 6 6 6 6 6 6 6 6 6 6 6 6 6 6 6 6 6 6 6 6 6 6 6 6 6 6 6 6 6 6 6 6 6 6 6 6 6 6 6 6 6 6 6 6 6 6 6 6 6 6 6 6 6 6 6 6 6 6 6 6 6 ",
"6 6 6 6 6 6 6 6 6 6 6 6 6 6 6 6 6 6 6 6 6 6 6 6 6 6 6 6 6 6 6 6 6 6 6 6 6 6 6 6 6 6 6 6 6 6 6 6 6 6 6 6 6 6 6 6 6 6 6 6 6 6 6 6 ",
"CX6 6 6 6 6 6 6 6 6 6 6 6 6 6 6 6 6 6 6 6 6 6 6 6 6 6 6 6 6 6 6 6 6 6 6 6 6 6 6 6 6 6 6 6 6 6 6 6 6 6 6 6 6 6 6 6 6 6 6 6 6 6 CX",
"CX6 6 6 6 6 6 6 6 6 6 6 6 6 6 6 6 6 6 6 6 6 6 6 6 6 6 6 6 6 6 6 6 6 6 6 6 6 6 6 6 6 6 6 6 6 6 6 6 6 6 6 6 6 6 6 6 6 6 6 6 6 6 CX",
"CXCX6 6 6 6 6 6 6 6 6 6 6 6 6 6 6 6 6 6 6 6 6 6 6 6 6 6 6 6 6 6 6 6 6 6 6 6 6 6 6 6 6 6 6 6 6 6 6 6 6 6 6 6 6 6 6 6 6 6 6 6 CXCX",
"CXCXCX6 6 6 6 6 6 6 6 6 6 6 6 6 6 6 6 6 6 6 6 6 6 6 6 6 6 6 6 6 6 6 6 6 6 6 6 6 6 6 6 6 6 6 6 6 6 6 6 6 6 6 6 6 6 6 6 6 6 CXCXCX",
"CXCXCXCX6 6 6 6 6 6 6 6 6 6 6 6 6 6 6 6 6 6 6 6 6 6 6 6 6 6 6 6 6 6 6 6 6 6 6 6 6 6 6 6 6 6 6 6 6 6 6 6 6 6 6 6 6 6 6 6 CXCXCXCX",
"CXCXCXCXCX6 6 6 6 6 6 6 6 6 6 6 6 6 6 6 6 6 6 6 6 6 6 6 6 6 6 6 6 6 6 6 6 6 6 6 6 6 6 6 6 6 6 6 6 6 6 6 6 6 6 6 6 6 6 CXCXCXCXCX",
"CXCXCXCXCXCXCX6 6 6 6 6 6 6 6 6 6 6 6 6 6 6 6 6 6 6 6 6 6 6 6 6 6 6 6 6 6 6 6 6 6 6 6 6 6 6 6 6 6 6 6 6 6 6 6 6 6 CXCXCXCXCXCXCX"
};
