/* XPM */
static char *_3b06da63f974c64f7bd9e366760db39[] = {
/* columns rows colors chars-per-pixel */
"32 32 178 2 ",
"   c #10100E",
".  c #121210",
"X  c #141411",
"o  c #161513",
"O  c #1A1914",
"+  c #1C1B18",
"@  c #211E1B",
"#  c #201F1C",
"$  c #23201D",
"%  c #20201F",
"&  c #25221E",
"*  c #262420",
"=  c #292522",
"-  c #2C2926",
";  c #2E2B27",
":  c gray17",
">  c #2D2D2D",
",  c #2F2F2F",
"<  c #312C28",
"1  c #332E2A",
"2  c #363326",
"3  c #3B3626",
"4  c #35332B",
"5  c #33312D",
"6  c #35302C",
"7  c #34302D",
"8  c #36322C",
"9  c #37322D",
"0  c #39342F",
"q  c #3B352E",
"w  c #313130",
"e  c #333232",
"r  c #343231",
"t  c #353431",
"y  c #363433",
"u  c #383733",
"i  c #3C3733",
"p  c #3B3834",
"a  c #393837",
"s  c #3A3836",
"d  c #3E3B34",
"f  c #3C3A38",
"g  c #423F2E",
"h  c #403B37",
"j  c #423E34",
"k  c #403E3B",
"l  c #433F3B",
"z  c #443F39",
"x  c #47412D",
"c  c #424139",
"v  c #464338",
"b  c #46453D",
"n  c #48433C",
"m  c #49453E",
"M  c #4F4A3C",
"N  c #4D4A3F",
"B  c #534B3D",
"V  c #514C3D",
"C  c #57513F",
"Z  c #494440",
"A  c #494541",
"S  c #4B4642",
"D  c #4D4843",
"F  c #4D4844",
"G  c #4F4A45",
"H  c #514F41",
"J  c #534F40",
"K  c #554F47",
"L  c #585445",
"P  c #5F5843",
"I  c #56544F",
"U  c #5E5748",
"Y  c #58544D",
"T  c #625840",
"R  c #605B49",
"E  c #625E4B",
"W  c #655D48",
"Q  c #605F55",
"!  c #70674A",
"~  c #73694F",
"^  c #6E6550",
"/  c #6D6851",
"(  c #786F52",
")  c #7E7250",
"_  c #7B7054",
"`  c #787257",
"'  c #7F7354",
"]  c #6F6D62",
"[  c #757067",
"{  c #7B7867",
"}  c #7F7A66",
"|  c #7E7C72",
" . c #817551",
".. c #817556",
"X. c #877A58",
"o. c #837C5E",
"O. c #837D61",
"+. c #8E805A",
"@. c #91845D",
"#. c #94855C",
"$. c #94865D",
"%. c #98895D",
"&. c #9A8B5F",
"*. c #A1915E",
"=. c #8F8561",
"-. c #8D8564",
";. c #968D6E",
":. c #988F6A",
">. c #A29260",
",. c #A79563",
"<. c #AB9963",
"1. c #AD9B65",
"2. c #AD9B66",
"3. c #A0936B",
"4. c #A7986D",
"5. c #AE9D6A",
"6. c #B3A067",
"7. c #B5A369",
"8. c #BAA86E",
"9. c #AEA375",
"0. c #ADA276",
"q. c #ADA07A",
"w. c #B9A770",
"e. c #BCAB71",
"r. c #BAAE7F",
"t. c #C1B076",
"y. c #C3B278",
"u. c #C6B57B",
"i. c #CABA7F",
"p. c #9B9688",
"a. c #A4A090",
"s. c #ACA99A",
"d. c #C0B180",
"f. c #C3B682",
"g. c #C3B586",
"h. c #C4B685",
"j. c #CCBD82",
"k. c #CBBE91",
"l. c #C6BC9A",
"z. c #CFC084",
"x. c #CDC088",
"c. c #D1C287",
"v. c #D3C589",
"b. c #D3C58E",
"n. c #D6C78C",
"m. c #D8CA8E",
"M. c #D5C891",
"N. c #D9CC92",
"B. c #DACD96",
"V. c #D5CA9F",
"C. c #DCD09D",
"Z. c #CDC4A3",
"A. c #D3C9A6",
"S. c #D8CEA5",
"D. c #D6CDAC",
"F. c #DCD2A1",
"G. c #DDD3A5",
"H. c #DAD1A8",
"J. c #DED5A9",
"K. c #DFD6AD",
"L. c #DCD4AF",
"P. c #CAC6B2",
"I. c #CBC8B3",
"U. c #CFCBB7",
"Y. c #D3CFBA",
"T. c #DBD3B1",
"R. c #D9D2B2",
"E. c #DED7B7",
"W. c #D9D4BC",
"Q. c #E1D9B4",
"!. c #E2DBB8",
"~. c #E0DABF",
"^. c #E3DCBC",
"/. c #DBD7C1",
"(. c #E3DEC0",
"). c #E5E1C7",
"_. c #E6E2CB",
"`. c None",
/* pixels */
"`.`.`.> > > > > > > > > > > > > > > > > > > > > > > > > > `.`.`.",
"`.`.> > > > > > > > > > > > > > > > > > > > > > > > > > > > `.`.",
"`.> > > > > > > > > > > > > > > > > > > > > > > > > > > > > > `.",
"> > > > > > > > > > > > > > > > > > > > > > > > > > > > > > > > ",
"> > > > > > > > > > > > > > > > > > > > > > > > > > > > > > > > ",
"> > > > > > > > > > > > > N L o.O.E L > > > > > > > > > > > > > ",
"> > > > > > > > > > u / f.m.C.(.).J.m.x.o.u > > > > > > > > > > ",
"> > > > > > > > c -.x.n.u.b._._._._.^.m.m.x.:.c > > > > > > > > ",
"> > > > > > > > >.y.u.7.e.m._._._._._.C.m.m.m.m.c > > > > > > > ",
"> > > > > > > P 6.6.6.6.z.m.^._._._._.^.N.K.F.m.o.> > > > > > > ",
"> > > > > > > >.6.6.6.6.m.m.K._._._._._._._.).N.x.u > > > > > > ",
"> > > > > > P 6.%.i.e.6.z.m.F._._._._._._._._.V.v.` > > > > > > ",
"> > > > > > m G h 9.u.6.u.m.b.D.G.C._._._._._.6.6. .> > > > > > ",
"> > > > > > f G 6 =.j.6.e.m.8.6.m.m.Q._._._.~.6.6.! > > > > > > ",
"> > > > > > y Z < W c.6.6.i.6.6.m.m.M._._._.T.6.6.N > > > > > > ",
"> > > > > > > i < ) z.v.t.K #.6.m.c.1./._._.k.6.6.d > > > > > > ",
"> > > > > > > a u j g x 2 + G X.j.7.T   o = ( 7.6.> > > > > > > ",
"> > > > > > > Z z X         + ) Z.~ 6 $ < < < #.6.y > > > > > > ",
"> > > > > > r G 7 # # $ ; i # +.T.a.G i < < < W 6.M > > > > > > ",
"> > > > > > y G F < < 6 G G l 4 } Y.G G i < m r.6.M > > > > > > ",
"> > > > > > a K 1.1.q m G ' V o   I.P.Y G z U._.g.! > > > > > > ",
"> > > > > > > Z ..6.,.&.,.T x     Q _.W.%.q._.A.*.t > > > > > > ",
"> > > > > > : e F 4.d.3.1.*       b ^.T.h.u.S.5.v > > > > > > > ",
"> > > > > > > > e p._.[ ^ 5 6 O 3 H B.L.w.m.i.C > > > > > > > > ",
"> > > > > > > > > I | f ; U l.=.&.9.F.H.;.E E > > > > > > > > > ",
"> > > > > > > > > > > % 5 X.d.y.u.u.E.J.s.> > > > > > > > > > > ",
"> > > > > > > > > > > : r V P N p C ] { a > > > > > > > > > > > ",
"> > > > > > > > > > > > > > > > > > > > > > > > > > > > > > > > ",
"> > > > > > > > > > > > > > > > > > > > > > > > > > > > > > > > ",
"`.> > > > > > > > > > > > > > > > > > > > > > > > > > > > > > `.",
"`.`.> > > > > > > > > > > > > > > > > > > > > > > > > > > > `.`.",
"`.`.`.> > > > > > > > > > > > > > > > > > > > > > > > > > `.`.`."
};
