/* XPM */
static char *_2e01ad1ba3e48d0ec436a48278119e7[] = {
/* columns rows colors chars-per-pixel */
"16 16 90 1 ",
"  c #24221C",
". c #29271E",
"X c #2B2723",
"o c gray17",
"O c #2D2D2D",
"+ c #2F2F2F",
"@ c #332E27",
"# c #302D29",
"$ c #35332B",
"% c #37322D",
"& c #38352E",
"* c #353431",
"= c #393633",
"- c #3A3835",
"; c #393837",
": c #3E3B34",
"> c #423F2E",
", c #403E37",
"< c #423F37",
"1 c #494234",
"2 c #424139",
"3 c #43423E",
"4 c #45413C",
"5 c #44413E",
"6 c #484338",
"7 c #4E483A",
"8 c #4B483D",
"9 c #4F4A3C",
"0 c #4F4C3F",
"q c #554D3C",
"w c #464542",
"e c #494541",
"r c #4B4640",
"t c #4D4843",
"y c #5D5543",
"u c #5F5642",
"i c #585445",
"p c #5D5749",
"a c #5A5951",
"s c #6A5F44",
"d c #605F55",
"f c #73684D",
"g c #786E4E",
"h c #756D5A",
"j c #817551",
"k c #847755",
"l c #897C55",
"z c #928359",
"x c #9A8A5C",
"c c #8F8569",
"v c #908461",
"b c #8D8872",
"n c #A79563",
"m c #AD9B65",
"M c #A0966D",
"N c #A6986B",
"B c #AC9B68",
"V c #A19675",
"C c #B5A369",
"Z c #B8A56C",
"A c #ADA376",
"S c #B6A97F",
"D c #BFAF7C",
"F c #C1B076",
"G c #B8AD83",
"H c #C7B882",
"J c #CABB85",
"K c #CBBE8C",
"L c #C0B692",
"P c #C2B893",
"I c #C9BD93",
"U c #C2BEAB",
"Y c #CFC084",
"T c #D1C287",
"R c #D3C589",
"E c #D6C78C",
"W c #D8CA8E",
"Q c #D9CC92",
"! c #DACD96",
"~ c #DAD1A8",
"^ c #DED5A9",
"/ c #CAC6B2",
"( c #E0D8B0",
") c #E1D9B4",
"_ c #E2DBB8",
"` c #E3DCBC",
"' c #E4DFC3",
"] c #E3DEC5",
"[ c #E6E2CB",
"{ c None",
/* pixels */
"{OOOOOOOOOOOOOO{",
"OOOOOOOOOOOOOOOO",
"OOOOOO2ii2OOOOOO",
"OOOOiMT_`!AiOOOO",
"OOO:CCR'[)QQiOOO",
"OOOjBZW)[[[~MOOO",
"OOOeyFYKQ'[IxOOO",
"OOO=1YNnEL[DlOOO",
"OOO;&>.9S@XsgOOO",
"OOO5@X46Ut%pzOOO",
"OOOrmkf d/c]vOOO",
"OOOOhVq$0^HG*OOO",
"OOOOw3yLJ(b,OOOO",
"OOOOOo298a;OOOOO",
"OOOOOOOOOOOOOOOO",
"{OOOOOOOOOOOOOO{"
};
